<svg id="artwork" xmlns="http://www.w3.org/2000/svg" xmlns:xlink="http://www.w3.org/1999/xlink" width="135" height="40" viewBox="0 0 135 40"><defs><style>.cls-1{fill:#a6a6a6;}.cls-10,.cls-2,.cls-9{fill:#fff;}.cls-3{fill:url(#linear-gradient);}.cls-4{fill:url(#linear-gradient-2);}.cls-5{fill:url(#linear-gradient-3);}.cls-6{fill:url(#linear-gradient-4);}.cls-7{opacity:0.2;}.cls-7,.cls-8,.cls-9{isolation:isolate;}.cls-8{opacity:0.12;}.cls-9{opacity:0.25;}.cls-10{stroke:#fff;stroke-miterlimit:10;stroke-width:0.2px;}</style><linearGradient id="linear-gradient" x1="21.8" y1="173.29" x2="5.017" y2="156.508" gradientTransform="matrix(1, 0, 0, -1, 0, 182)" gradientUnits="userSpaceOnUse"><stop offset="0" stop-color="#00a0ff"/><stop offset="0.007" stop-color="#00a1ff"/><stop offset="0.26" stop-color="#00beff"/><stop offset="0.512" stop-color="#00d2ff"/><stop offset="0.76" stop-color="#00dfff"/><stop offset="1" stop-color="#00e3ff"/></linearGradient><linearGradient id="linear-gradient-2" x1="33.834" y1="161.999" x2="9.637" y2="161.999" gradientTransform="matrix(1, 0, 0, -1, 0, 182)" gradientUnits="userSpaceOnUse"><stop offset="0" stop-color="#ffe000"/><stop offset="0.409" stop-color="#ffbd00"/><stop offset="0.775" stop-color="orange"/><stop offset="1" stop-color="#ff9c00"/></linearGradient><linearGradient id="linear-gradient-3" x1="24.827" y1="159.704" x2="2.069" y2="136.946" gradientTransform="matrix(1, 0, 0, -1, 0, 182)" gradientUnits="userSpaceOnUse"><stop offset="0" stop-color="#ff3a44"/><stop offset="1" stop-color="#c31162"/></linearGradient><linearGradient id="linear-gradient-4" x1="7.297" y1="181.824" x2="17.46" y2="171.661" gradientTransform="matrix(1, 0, 0, -1, 0, 182)" gradientUnits="userSpaceOnUse"><stop offset="0" stop-color="#32a071"/><stop offset="0.069" stop-color="#2da771"/><stop offset="0.476" stop-color="#15cf74"/><stop offset="0.801" stop-color="#06e775"/><stop offset="1" stop-color="#00f076"/></linearGradient></defs><rect width="135" height="40" rx="5"/><path class="cls-1" d="M130,.8A4.2,4.2,0,0,1,134.2,5V35a4.2,4.2,0,0,1-4.2,4.2H5A4.2,4.2,0,0,1,.8,35V5A4.2,4.2,0,0,1,5,.8H130m0-.8H5A5.015,5.015,0,0,0,0,5V35a5.015,5.015,0,0,0,5,5H130a5.015,5.015,0,0,0,5-5V5a5.015,5.015,0,0,0-5-5Z"/><path class="cls-2" d="M68.136,21.752a4.253,4.253,0,1,0,4.269,4.253A4.192,4.192,0,0,0,68.136,21.752Zm0,6.831a2.585,2.585,0,1,1,2.4-2.578A2.461,2.461,0,0,1,68.136,28.583Zm-9.314-6.831a4.253,4.253,0,1,0,4.27,4.253A4.192,4.192,0,0,0,58.822,21.752Zm0,6.831a2.585,2.585,0,1,1,2.4-2.578A2.461,2.461,0,0,1,58.822,28.583ZM47.744,23.057v1.8h4.317a3.766,3.766,0,0,1-.983,2.272,4.42,4.42,0,0,1-3.334,1.321,4.8,4.8,0,0,1,0-9.6A4.6,4.6,0,0,1,51,20.141l1.273-1.273a6.3,6.3,0,0,0-4.527-1.821,6.606,6.606,0,1,0,0,13.211,6.036,6.036,0,0,0,4.607-1.853,5.962,5.962,0,0,0,1.563-4.221,5.836,5.836,0,0,0-.1-1.127Zm45.308,1.4a3.954,3.954,0,0,0-3.641-2.706A4.042,4.042,0,0,0,85.4,26.005a4.162,4.162,0,0,0,4.22,4.253,4.232,4.232,0,0,0,3.545-1.885l-1.45-.966a2.432,2.432,0,0,1-2.095,1.176,2.164,2.164,0,0,1-2.062-1.289l5.687-2.352Zm-5.8,1.418A2.333,2.333,0,0,1,89.475,23.4a1.648,1.648,0,0,1,1.579.9ZM82.628,30H84.5V17.5H82.628Zm-3.061-7.3H79.5a2.948,2.948,0,0,0-2.239-.95,4.257,4.257,0,0,0,0,8.506,2.9,2.9,0,0,0,2.239-.967h.064V29.9c0,1.627-.87,2.5-2.271,2.5a2.354,2.354,0,0,1-2.143-1.515l-1.627.677a4.053,4.053,0,0,0,3.77,2.513c2.191,0,4.044-1.289,4.044-4.43V22.009H79.567Zm-2.142,5.881a2.587,2.587,0,0,1,0-5.156A2.4,2.4,0,0,1,79.7,26.021,2.377,2.377,0,0,1,77.425,28.583ZM101.806,17.5H97.335V30H99.2V25.264h2.606a3.888,3.888,0,1,0,0-7.765Zm.048,6.025H99.2V19.239h2.654a2.143,2.143,0,1,1,0,4.285Zm11.532-1.8a3.5,3.5,0,0,0-3.33,1.914l1.657.691a1.769,1.769,0,0,1,1.705-.917,1.8,1.8,0,0,1,1.962,1.609v.128a4.131,4.131,0,0,0-1.946-.482c-1.785,0-3.6.981-3.6,2.814a2.889,2.889,0,0,0,3.1,2.751,2.633,2.633,0,0,0,2.381-1.223h.064v.965h1.8V25.187C117.181,22.967,115.525,21.729,113.386,21.729Zm-.226,6.851c-.611,0-1.463-.3-1.463-1.061,0-.965,1.061-1.335,1.978-1.335a3.329,3.329,0,0,1,1.7.418A2.262,2.262,0,0,1,113.16,28.58ZM123.743,22l-2.139,5.42h-.064L119.32,22h-2.01l3.329,7.575-1.9,4.214h1.946L125.818,22Zm-16.807,8H108.8V17.5h-1.866Z"/><path class="cls-3" d="M10.435,7.538a2,2,0,0,0-.463,1.4V31.059a2,2,0,0,0,.463,1.4l.074.072L22.9,20.147v-.292L10.509,7.466Z"/><path class="cls-4" d="M27.028,24.279,22.9,20.147v-.292l4.131-4.13.093.053,4.893,2.78c1.4.794,1.4,2.093,0,2.887l-4.893,2.781Z"/><path class="cls-5" d="M27.122,24.225,22.9,20,10.435,32.464a1.626,1.626,0,0,0,2.078.061l14.609-8.3"/><path class="cls-6" d="M27.122,15.777l-14.609-8.3a1.626,1.626,0,0,0-2.078.061L22.9,20Z"/><path class="cls-7" d="M27.029,24.132,12.513,32.379a1.663,1.663,0,0,1-2,.011h0l-.075.075h0l.074.072h0a1.663,1.663,0,0,0,2-.011l14.609-8.3Z"/><path class="cls-8" d="M10.435,32.318a2,2,0,0,1-.463-1.4v.146a2,2,0,0,0,.463,1.405l.075-.075Z"/><path class="cls-8" d="M32.015,21.3l-4.986,2.833.093.093,4.893-2.78A1.755,1.755,0,0,0,33.063,20h0A1.864,1.864,0,0,1,32.015,21.3Z"/><path class="cls-9" d="M12.513,7.623l19.5,11.08A1.863,1.863,0,0,1,33.063,20h0a1.755,1.755,0,0,0-1.048-1.444l-19.5-11.08c-1.4-.794-2.541-.134-2.541,1.467V9.09C9.972,7.489,11.116,6.829,12.513,7.623Z"/><path class="cls-10" d="M41.339,13V7.272h1.752a2.842,2.842,0,0,1,2.112.8A2.806,2.806,0,0,1,46,10.136,2.81,2.81,0,0,1,45.2,12.2a2.845,2.845,0,0,1-2.112.8Zm.735-.7h1.017a2.154,2.154,0,0,0,1.572-.568,2.124,2.124,0,0,0,.58-1.592,2.13,2.13,0,0,0-.58-1.588,2.143,2.143,0,0,0-1.572-.572H42.074Z"/><path class="cls-10" d="M51.791,12.26a2.974,2.974,0,0,1-4.2,0,2.928,2.928,0,0,1-.844-2.124,2.931,2.931,0,0,1,.844-2.124,2.965,2.965,0,0,1,4.2,0,2.93,2.93,0,0,1,.848,2.12A2.932,2.932,0,0,1,51.791,12.26Zm-3.656-.48a2.2,2.2,0,0,0,3.112,0,2.24,2.24,0,0,0,.636-1.644,2.244,2.244,0,0,0-.636-1.644,2.2,2.2,0,0,0-3.112,0,2.244,2.244,0,0,0-.636,1.644A2.24,2.24,0,0,0,48.135,11.78Z"/><path class="cls-10" d="M55.283,13.128a2.141,2.141,0,0,1-1.221-.408,1.89,1.89,0,0,1-.779-1.144l.672-.272a1.534,1.534,0,0,0,.492.8,1.239,1.239,0,0,0,.836.324,1.336,1.336,0,0,0,.819-.252.806.806,0,0,0,.34-.684.876.876,0,0,0-.34-.74,3.5,3.5,0,0,0-1.076-.484,2.874,2.874,0,0,1-1.151-.62,1.294,1.294,0,0,1-.393-.972A1.422,1.422,0,0,1,53.971,7.6a1.787,1.787,0,0,1,1.272-.456,1.845,1.845,0,0,1,1.184.364,1.7,1.7,0,0,1,.592.8l-.672.28a.994.994,0,0,0-.356-.5,1.118,1.118,0,0,0-.732-.232,1.133,1.133,0,0,0-.724.236.722.722,0,0,0-.3.588.668.668,0,0,0,.277.54,2.618,2.618,0,0,0,.812.4,7.032,7.032,0,0,1,.708.264,3.262,3.262,0,0,1,.575.34,1.351,1.351,0,0,1,.441.528,1.72,1.72,0,0,1,.147.732,1.564,1.564,0,0,1-.172.744,1.383,1.383,0,0,1-.456.52,2.219,2.219,0,0,1-.611.292A2.284,2.284,0,0,1,55.283,13.128Z"/><path class="cls-10" d="M60.123,13h-.736V7.976h-1.6v-.7h3.936v.7h-1.6Z"/><path class="cls-10" d="M64.642,13.128A2.009,2.009,0,0,1,63.11,12.5a2.283,2.283,0,0,1-.588-1.632v-3.6h.736V10.9a1.644,1.644,0,0,0,.356,1.1,1.468,1.468,0,0,0,2.056,0,1.644,1.644,0,0,0,.356-1.1V7.272h.737v3.6a2.319,2.319,0,0,1-.573,1.636A2,2,0,0,1,64.642,13.128Z"/><path class="cls-10" d="M68.681,13h-.735V7.272H69.9a1.811,1.811,0,0,1,1.26.484,1.665,1.665,0,0,1,0,2.44,1.806,1.806,0,0,1-1.26.484H68.681Zm0-3.024h1.233a.95.95,0,0,0,.744-.312.985.985,0,0,0,0-1.376.95.95,0,0,0-.744-.312H68.681Z"/><path class="cls-10" d="M72.618,13V7.272h.9L76.3,11.728h.032l-.032-1.1V7.272h.736V13h-.768L73.353,8.328h-.031l.031,1.1V13Z"/><path class="cls-10" d="M83.03,12.26a2.974,2.974,0,0,1-4.2,0,2.928,2.928,0,0,1-.844-2.124,2.931,2.931,0,0,1,.844-2.124,2.965,2.965,0,0,1,4.2,0,2.926,2.926,0,0,1,.848,2.12A2.928,2.928,0,0,1,83.03,12.26Zm-3.656-.48a2.2,2.2,0,0,0,3.112,0,2.24,2.24,0,0,0,.636-1.644,2.244,2.244,0,0,0-.636-1.644,2.2,2.2,0,0,0-3.112,0,2.244,2.244,0,0,0-.636,1.644A2.24,2.24,0,0,0,79.374,11.78Z"/><path class="cls-10" d="M86.826,13V7.272h.9l2.784,4.456h.032l-.032-1.1V7.272h.736V13h-.769L87.561,8.328H87.53l.031,1.1V13Z"/><path class="cls-10" d="M92.073,13l2.16-5.728h.832L97.225,13h-.816l-.552-1.552H93.449L92.889,13ZM93.7,10.76h1.9l-.935-2.584h-.032Z"/><path class="cls-10" d="M101.809,13.128a2.009,2.009,0,0,1-1.532-.624,2.283,2.283,0,0,1-.588-1.632v-3.6h.736V10.9a1.644,1.644,0,0,0,.356,1.1,1.468,1.468,0,0,0,2.056,0,1.644,1.644,0,0,0,.356-1.1V7.272h.737v3.6a2.319,2.319,0,0,1-.573,1.636A2,2,0,0,1,101.809,13.128Z"/><path class="cls-10" d="M106.73,13.128a2.136,2.136,0,0,1-1.22-.408,1.887,1.887,0,0,1-.78-1.144l.672-.272a1.534,1.534,0,0,0,.492.8,1.239,1.239,0,0,0,.836.324,1.339,1.339,0,0,0,.82-.252.807.807,0,0,0,.339-.684.878.878,0,0,0-.339-.74,3.509,3.509,0,0,0-1.077-.484,2.881,2.881,0,0,1-1.151-.62,1.293,1.293,0,0,1-.392-.972,1.424,1.424,0,0,1,.488-1.072,1.787,1.787,0,0,1,1.272-.456,1.843,1.843,0,0,1,1.184.364,1.688,1.688,0,0,1,.592.8l-.672.28a.994.994,0,0,0-.356-.5,1.117,1.117,0,0,0-.732-.232,1.134,1.134,0,0,0-.724.236.722.722,0,0,0-.3.588.668.668,0,0,0,.277.54,2.618,2.618,0,0,0,.812.4,6.941,6.941,0,0,1,.708.264,3.3,3.3,0,0,1,.576.34,1.357,1.357,0,0,1,.44.528,1.706,1.706,0,0,1,.147.732,1.575,1.575,0,0,1-.171.744,1.4,1.4,0,0,1-.456.52,2.238,2.238,0,0,1-.612.292A2.284,2.284,0,0,1,106.73,13.128Z"/><path class="cls-10" d="M109.7,13V7.272h.735V12.3h2.481V13Z"/><path class="cls-10" d="M115.754,13.128a2.006,2.006,0,0,1-1.532-.624,2.278,2.278,0,0,1-.588-1.632v-3.6h.735V10.9a1.644,1.644,0,0,0,.356,1.1,1.468,1.468,0,0,0,2.056,0,1.644,1.644,0,0,0,.357-1.1V7.272h.736v3.6a2.323,2.323,0,0,1-.572,1.636A2,2,0,0,1,115.754,13.128Z"/><path class="cls-10" d="M118.736,13v-.768l3.048-4.256h-2.92v-.7h3.776V8.04L119.593,12.3h3.08V13Z"/><path class="cls-10" d="M123.728,13V7.272h.736V13Z"/></svg>